HIERARCHY
ROOT Hips
{
	OFFSET -0.001795 -0.223333 0.028219
	CHANNELS 6 Xposition Yposition Zposition Zrotation Yrotation Xrotation 
	JOINT LeftUpLeg
	{
		OFFSET 0.069520 -0.091406 -0.006815
		CHANNELS 3 Zrotation Yrotation Xrotation
		JOINT LeftLeg
		{
			OFFSET 0.034277 -0.375199 -0.004496
			CHANNELS 3 Zrotation Yrotation Xrotation
			JOINT LeftFoot
			{
				OFFSET -0.013596 -0.397961 -0.043693
				CHANNELS 3 Zrotation Yrotation Xrotation
				JOINT LeftToe
				{
					OFFSET 0.026358 -0.055791 0.119288
					CHANNELS 3 Zrotation Yrotation Xrotation
					End Site
					{
						OFFSET 0.000000 0.000000 0.000000
					}
				}
			}
		}
	}
	JOINT RightUpLeg
	{
		OFFSET -0.067670 -0.090522 -0.004320
		CHANNELS 3 Zrotation Yrotation Xrotation
		JOINT RightLeg
		{
			OFFSET -0.038290 -0.382569 -0.008850
			CHANNELS 3 Zrotation Yrotation Xrotation
			JOINT RightFoot
			{
				OFFSET 0.015774 -0.398415 -0.042312
				CHANNELS 3 Zrotation Yrotation Xrotation
				JOINT RightToe
				{
					OFFSET -0.025372 -0.048144 0.123348
					CHANNELS 3 Zrotation Yrotation Xrotation
					End Site
					{
						OFFSET 0.000000 0.000000 0.000000
					}
				}
			}
		}
	}
	JOINT Spine
	{
		OFFSET -0.002533 0.108963 -0.026696
		CHANNELS 3 Zrotation Yrotation Xrotation
		JOINT Spine1
		{
			OFFSET 0.005487 0.135180 0.001092
			CHANNELS 3 Zrotation Yrotation Xrotation
			JOINT Spine2
			{
				OFFSET 0.001457 0.052922 0.025425
				CHANNELS 3 Zrotation Yrotation Xrotation
				JOINT Neck
				{
					OFFSET -0.002778 0.213870 -0.042857
					CHANNELS 3 Zrotation Yrotation Xrotation
					JOINT Head
					{
						OFFSET 0.005152 0.064970 0.051349
						CHANNELS 3 Zrotation Yrotation Xrotation
						End Site
						{
							OFFSET 0.000000 0.000000 0.000000
						}
					}
				}
				JOINT LeftShoulder
				{
					OFFSET 0.078845 0.121749 -0.034090
					CHANNELS 3 Zrotation Yrotation Xrotation
					JOINT LeftArm
					{
						OFFSET 0.090977 0.030469 -0.008868
						CHANNELS 3 Zrotation Yrotation Xrotation
						JOINT LeftForeArm
						{
							OFFSET 0.259612 -0.012772 -0.027456
							CHANNELS 3 Zrotation Yrotation Xrotation
							JOINT LeftHand
							{
								OFFSET 0.249234 0.008986 -0.001171
								CHANNELS 3 Zrotation Yrotation Xrotation
								End Site
								{
									OFFSET 0.000000 0.000000 0.000000
								}
							}
						}
					}
				}
				JOINT RightShoulder
				{
					OFFSET -0.081759 0.118833 -0.038615
					CHANNELS 3 Zrotation Yrotation Xrotation
					JOINT RightArm
					{
						OFFSET -0.096012 0.032551 -0.009143
						CHANNELS 3 Zrotation Yrotation Xrotation
						JOINT RightForeArm
						{
							OFFSET -0.253742 -0.013329 -0.021401
							CHANNELS 3 Zrotation Yrotation Xrotation
							JOINT RightHand
							{
								OFFSET -0.255298 0.007772 -0.005559
								CHANNELS 3 Zrotation Yrotation Xrotation
								End Site
								{
									OFFSET 0.000000 0.000000 0.000000
								}
							}
						}
					}
				}
			}
		}
	}
}
MOTION
Frames: 7
Frame Time: 0.050000
0.000000 0.884665 0.000000 5.803385 -8.831058 3.929583 1.419138 -0.414176 -4.972796 -4.491022 1.403347 23.672622 11.154964 23.523100 -0.728183 0.000000 0.000000 0.000000 0.603654 5.116681 -37.737331 13.470506 -3.449617 50.748505 -12.107086 -30.219885 -4.200018 0.000000 0.000000 0.000000 -1.865565 -0.110541 13.750883 -0.169400 0.090401 -1.478881 -0.494850 -4.101882 9.099923 6.177286 -3.532545 -16.608864 0.000000 0.000000 0.000000 -12.097308 -3.143738 1.826933 -53.861123 -6.272522 -3.887470 -66.285364 -83.847155 69.813014 0.000000 0.000000 0.000000 12.743763 2.136572 -1.570472 58.173682 -11.984198 -12.035957 61.889204 60.031582 37.165925 0.000000 0.000000 0.000000 
-0.019784 0.905364 0.060920 5.369875 -13.800552 5.823230 -0.192754 -0.012021 -0.008299 -1.050952 0.363000 18.762623 11.087110 22.210148 8.353307 0.000000 0.000000 0.000000 1.091767 6.449193 -40.708412 13.113285 -2.145446 40.547924 -15.153500 -35.100412 3.871380 0.000000 0.000000 0.000000 -1.260333 -0.115979 11.286187 1.919601 -0.833732 -2.319121 -1.526390 -5.596765 10.099815 4.869158 -2.890446 -19.807535 0.000000 0.000000 0.000000 -12.743036 0.425389 0.659892 -53.935977 -7.403548 -3.230704 -148.258520 -82.602902 156.497344 0.000000 0.000000 0.000000 14.153725 -0.813243 -3.933810 50.594699 -18.485871 -12.763299 78.866470 61.469617 49.220987 0.000000 0.000000 0.000000 
-0.047624 0.919650 0.123946 3.723989 -20.981798 6.927284 2.131979 0.301502 3.171101 -1.218030 0.859965 18.988044 8.467569 16.240084 19.091985 0.000000 0.000000 0.000000 4.425542 7.844781 -38.512665 11.316049 -0.647385 29.646886 -14.130860 -32.660223 10.251175 0.000000 0.000000 0.000000 3.240962 -0.526394 7.729127 1.564645 -0.726175 -4.742203 -3.896936 -3.527792 14.045921 5.837191 -3.776603 -20.827129 0.000000 0.000000 0.000000 -13.800122 2.155232 0.434787 -53.378057 -8.690884 -3.336368 -125.616225 -83.248208 134.489536 0.000000 0.000000 0.000000 9.441052 -1.922930 -3.432280 55.257927 -20.437371 -16.180900 75.421829 57.554982 42.285114 0.000000 0.000000 0.000000 
-0.079923 0.927355 0.184970 4.849841 -23.951730 6.009394 3.997957 0.289000 2.627253 -2.967384 2.538263 25.914168 6.188462 12.657183 23.280389 0.000000 0.000000 0.000000 5.532873 7.479669 -35.335060 10.273862 -0.084539 27.757182 -13.694260 -31.594839 13.751135 0.000000 0.000000 0.000000 3.603682 -0.526071 7.529561 2.198307 -0.984451 -3.482244 -4.991155 -3.303757 11.244141 6.667407 -4.495954 -17.415758 0.000000 0.000000 0.000000 -14.733489 -0.675752 2.074253 -52.881902 -6.541429 -4.099671 -137.814863 -83.992926 147.666845 0.000000 0.000000 0.000000 12.100258 -2.283910 -4.525334 51.568515 -23.773428 -15.848468 83.493908 60.750498 51.115917 0.000000 0.000000 0.000000 
-0.114868 0.919160 0.242202 5.493154 -27.953793 3.940705 5.980404 0.224881 -1.054444 -3.057247 5.870515 38.942978 2.986204 8.087843 21.502997 0.000000 0.000000 0.000000 7.051435 7.356599 -32.530560 9.956308 0.719149 30.634920 -12.998880 -30.667230 10.536303 0.000000 0.000000 0.000000 3.924939 -0.555697 9.242367 2.047960 -0.992587 -5.017550 -5.071092 -2.363155 12.172102 7.507940 -5.244124 -17.129289 0.000000 0.000000 0.000000 -15.367982 0.849143 1.665305 -52.431359 -4.683877 -5.078706 -129.442424 -82.926369 138.781823 0.000000 0.000000 0.000000 11.185579 -2.565242 -4.597763 53.416480 -22.619917 -16.333331 83.466141 61.418111 51.063031 0.000000 0.000000 0.000000 
-0.152448 0.904163 0.295155 5.917738 -33.751680 2.807327 6.547248 0.289933 -7.490155 0.599553 8.668056 51.069193 2.661456 7.192769 16.331962 0.000000 0.000000 0.000000 9.249618 6.942008 -28.798906 9.671179 2.222590 35.528144 -12.436165 -29.241951 3.872933 0.000000 0.000000 0.000000 3.797165 -0.486578 12.095017 1.752325 -0.943221 -5.869659 -3.825740 0.164203 11.686376 6.794269 -4.766963 -18.221342 0.000000 0.000000 0.000000 -18.255116 -0.052341 2.696919 -51.625917 -2.606299 -6.205018 -131.991185 -82.892045 141.215038 0.000000 0.000000 0.000000 12.360606 -2.779420 -5.193642 53.573995 -20.004535 -15.088973 86.318456 64.365289 56.115797 0.000000 0.000000 0.000000 
-0.194373 0.897396 0.345029 6.724652 -40.022595 1.803171 5.413531 0.535811 -14.227705 6.608325 8.856950 58.365329 0.560976 2.555338 7.902708 0.000000 0.000000 0.000000 10.775302 6.154942 -25.097476 9.196870 3.808490 38.063753 -11.054017 -25.375820 0.489186 0.000000 0.000000 0.000000 3.263727 -0.280432 13.476481 0.926615 -0.707690 -6.459431 -3.147047 1.958244 12.141200 6.846518 -4.864379 -19.804248 0.000000 0.000000 0.000000 -17.251246 1.709572 1.907501 -52.067124 -0.416397 -7.000753 -123.360522 -81.397667 131.474622 0.000000 0.000000 0.000000 12.324097 -2.370431 -5.282483 53.757552 -16.299396 -13.605426 96.830717 67.071146 67.600683 0.000000 0.000000 0.000000 
